<svg xmlns="http://www.w3.org/2000/svg" version="1.1" xmlns:xlink="http://www.w3.org/1999/xlink" xmlns:svgjs="http://svgjs.dev/svgjs" width="1000" height="1125" viewBox="0 0 1000 1125"><g transform="matrix(1,0,0,1,0.000095367431640625,0)"><svg viewBox="0 0 320 360" data-background-color="#ffffff" preserveAspectRatio="xMidYMid meet" height="1125" width="1000" xmlns="http://www.w3.org/2000/svg" xmlns:xlink="http://www.w3.org/1999/xlink"><g id="tight-bounds" transform="matrix(1,0,0,1,-0.000030517578125,0)"><svg viewBox="0 0 320 360" height="360" width="320"><rect width="320.00006103515625" height="360" fill="url(#5063755e-2b53-43c2-b0b5-b9e033ad6296)" mask="url(#1ec1ea13-f29c-4010-95d5-4b77d2e241f6)" data-fill-palette-color="tertiary"></rect><g><svg></svg></g><g><svg viewBox="0 0 320 360" height="360" width="320"><g><path xmlns="http://www.w3.org/2000/svg" d="M219.58 41.008c0.707 0 6.365 2.829 9.547 3.89-1.061 0.354-3.536-0.707-6.365-1.768 0.707 0 2.122 0.354 3.536 1.06-0.707-0.707-6.011-2.475-6.718-3.182M166.895 30.047c1.061-0.354 13.436 1.414 19.094 1.768 0.354-0.354-0.707-0.354-2.122-0.707 1.768-0.354 5.304 0.707 7.779 1.06-7.425 0.354-15.558-1.768-22.629-1.06-2.475 0-0.707-0.707-2.122-1.061M156.641 30.047c6.365 0 11.315 0 2.121 0.707-1.061-0.354-2.475-0.354-2.121-0.707M256.707 59.395c0.707 0 3.536 3.182 4.95 4.243-0.354 0.354-3.182-2.475-4.596-3.536 0.354 0.354 0 0-0.354-0.707M249.635 54.798c-2.829-2.475-3.889-2.475-4.243-3.889 2.475 1.414 4.243 2.829 4.243 3.889M204.022 32.522c0.354-0.354 1.061 0.354 2.829 0.707-2.122-0.354-1.768 0-1.061 0.707-2.475-0.354-3.182-0.707-2.475-1.414 1.414 0.707 1.768 0.354 0.707 0M103.602 36.765c0-0.354 1.414-1.061 2.475-1.414-1.061 0.707-0.707 1.061 1.061 0.353 0 0.354-2.122 1.061-3.536 1.768 0.707-0.354 1.414-1.414 0-0.707M211.094 28.986c-1.061 0.354-4.95-1.768-8.84-2.475-2.122-0.707 8.486 1.768 8.84 2.475M2.475 203.66c2.122 8.84 0.707 8.486 0 0M2.829 150.621c0.354-1.414 0.707-5.304 1.06-4.95-1.061 8.486-2.829 12.376-3.182 18.74 1.061-5.657-0.354 3.182-0.707 5.304 0.354 2.829 0.354-1.768 1.061-1.06 0.707 1.061-1.414 15.912-0.707 7.779-0.707 7.425 0 15.558 1.414 17.679-1.768 11.315 7.072 36.773 8.84 42.077 0.354 0.354 0-1.768 0.707-0.353 0.707 4.597 3.889 7.779 4.95 12.729 1.061 1.414 5.304 9.193 6.011 10.962 1.414 2.829 2.122 2.475 3.536 5.303 4.243 8.133 10.961 15.912 17.326 23.337 20.508 24.044 51.978 43.845 86.984 50.918 35.006 7.425 71.779 2.122 100.419-11.669 1.768-1.061 1.414-1.414 3.536-2.122 9.901-3.182 21.923-13.436 28.641-17.326 3.182-3.536 11.669-9.547 12.73-13.082 6.011-4.95 12.022-13.083 15.204-18.387 1.768-2.829 3.182-2.829 3.889-4.597-0.354 0 5.657-7.425 7.426-11.668-0.707 0-1.768 2.122-1.768 0 12.729-24.398 19.801-57.282 15.911-79.912 0.707 27.934-6.365 59.05-19.801 78.851-6.011 12.729-18.387 26.519-29.701 36.42-1.768 1.768-3.536 3.889-5.658 5.304-6.718 5.657-14.144 10.254-21.922 14.497-18.387 10.254-38.895 19.094-62.94 19.447 41.37-3.536 78.497-24.398 99.006-49.856-15.558 15.204-22.276 21.215-39.602 30.055-1.414 2.475-13.083 7.425-20.862 9.547 4.597-2.122 14.144-5.657 17.326-8.486-25.812 12.376-54.453 19.448-81.326 15.558 10.254 0 24.751 0.354 38.541-2.121 2.122-0.707 3.182-1.414 5.658-1.768 26.873-6.011 52.685-19.094 71.072-37.481-10.608 9.547-26.519 20.862-36.774 24.398 9.547-5.304 26.873-15.558 32.53-23.337-11.315 11.315-32.53 22.63-45.966 27.58-2.122 0.354 1.414-1.414-2.122 0-4.243 1.061-2.475 1.061-3.536 1.768-16.265 4.597-35.006 8.486-50.563 7.072-2.829-0.354-3.889-1.061-6.365-1.061-2.829-0.354-5.304-0.354-8.486-0.354-12.376-1.414-25.812-6.365-35.713-10.607-5.304-2.475-10.608-4.243-15.912-7.426-4.243-2.475-7.779-5.304-11.314-8.132-13.436-9.901-24.751-19.801-35.36-33.945-19.094-26.519-28.994-59.757-27.58-92.641 1.414-32.884 14.497-65.061 35.359-88.752-1.061 1.061 1.414-2.475 3.536-4.596 0 0.707-0.354 1.768 2.122-0.707 2.122-2.475-0.707-0.707 0.353-2.122 21.923-24.044 60.111-43.492 99.36-44.199 1.414-1.061 3.889-2.475 6.718-1.768 0 0.354-1.768 0.354-1.768 0.354 3.889-0.354 7.425-0.354 9.193 0.353 0.354-0.354-1.414-0.707 0-0.707 2.475 0.707 3.182 0 4.597 0.707-1.061 0-2.122 0-2.829 0.354 8.84 0 14.497 2.122 23.337 2.829-4.597-1.061-5.657-1.061-9.193-2.122 3.889 0.707 5.657 1.414 7.425 1.061-0.707 0-0.354-1.061 0.354-0.707 7.072 1.768 7.779 2.475 15.204 4.95 0.707-0.707-3.182-1.061-4.243-2.122 7.072 2.475 13.436 4.243 17.68 7.072-1.414-1.061-5.657-2.475-8.84-3.889-0.354 0.354 1.061 0.707 1.414 1.414-3.536-1.768-8.486-3.536-13.436-4.243 4.243 1.061 7.072 2.475 8.84 3.182-3.889-0.707-8.84-3.182-14.498-4.243 9.193 2.829 26.519 9.193 37.127 14.851-3.889-2.475-8.486-4.243-10.961-5.657 2.122 0.354 4.597 1.768 4.597 1.06 2.475 1.061 5.657 3.536 7.425 3.89-3.182-2.122-9.547-5.304-11.668-6.365 26.519 12.022 50.21 32.177 65.414 57.989 1.414 2.475 3.536 8.133 5.304 8.84-0.354-1.768-1.768-2.829-3.182-5.657 0.707 0 0.707-1.061 0-2.122-1.414-1.768 0 1.414-1.415-0.354-6.365-11.669-14.144-21.923-26.165-33.237 6.718 6.365 1.768 1.768 0.353-0.354 9.193 8.133 19.801 21.923 24.398 28.995-0.707-1.061-1.061-1.768-0.707-1.768 8.486 14.497 13.79 27.58 19.094 46.32 0.354 0.354 0-1.414 0.707-0.353 3.536 14.851 4.597 27.227 4.243 38.541 2.829-19.094-3.536-48.796-14.851-72.133-1.414-2.829-1.414-0.707-2.829-3.889 0-1.061-1.061-3.182-1.768-4.597-14.144-23.337-31.47-39.956-51.978-53.038 1.414 0.707 4.243 2.829 4.244 2.475-38.188-25.105-82.387-28.641-118.807-20.862-2.475 1.061-3.536 2.122-6.365 3.536 5.304-1.768 8.486-2.122 13.437-3.183 1.061-1.061-4.597 0.354-2.122-0.707 0.354 0.354 4.95-0.707 6.011-0.353 0 0.354-1.414 0.707-1.768 1.06 11.669-2.475 23.691-2.829 33.945-2.121-6.011 0.354-16.972-0.707-20.508 1.061 3.536-0.354 8.486-0.707 11.668-0.354-4.243 0-12.022 0.354-15.558 0.707-0.354-0.354 5.657-1.061 1.768-1.06-1.768 0.354-4.597 0.354-5.657 1.414-30.409 2.829-60.111 18.74-80.973 37.481-4.243 3.536-9.193 7.425-12.375 11.314-7.779 8.84-12.729 17.68-18.387 25.459 3.536-7.425 11.315-18.74 20.508-28.287 9.193-9.547 19.094-17.68 24.398-21.923 0 1.414 8.486-5.304 11.669-7.425-2.122 1.768 1.414-0.707 2.121-0.354 11.315-6.718 20.508-9.193 30.763-13.083-2.475 0.707-4.597 1.414-4.951 1.061 2.475-0.707 3.889-1.414 3.536-1.768-9.901 2.829-25.459 9.547-37.834 16.972 22.276-15.204 50.564-24.398 78.497-24.751 27.934-0.707 55.16 6.365 76.729 17.68 14.497 6.365 28.287 18.033 39.249 29.348 3.182 2.829 0.707-0.707 5.304 4.243-1.414-0.707-2.475-1.414-0.707 0.707 2.829 3.182-0.707-2.475 3.889 3.182-0.354 0-1.768-1.768-1.768-1.061 12.376 10.961 21.923 30.762 27.58 43.846-1.414-5.304-4.95-12.729-7.779-18.033 8.486 15.558 11.315 24.751 14.851 38.541 1.414 1.061-0.707-4.95 0.707-2.121 0.354 2.122 0.707 8.84 2.122 9.9-1.061-6.718-2.829-14.851-4.243-16.265 1.061 0.707-1.768-8.133-3.536-10.254-0.707-5.657-5.657-15.558-9.901-22.984-15.204-29.702-42.431-54.099-72.839-67.536 0-0.707-1.768-1.414-2.476-2.121-30.055-12.729-66.122-16.265-100.773-8.133-35.006 8.486-67.889 28.641-91.227 57.636 1.061-3.536 9.901-10.254 10.255-13.083-10.254 10.961-21.215 25.459-28.641 41.016-7.779 15.558-12.022 31.47-13.79 43.138" fill="url(#5063755e-2b53-43c2-b0b5-b9e033ad6296)" fill-rule="nonzero" stroke="none" stroke-width="1" stroke-linecap="butt" stroke-linejoin="miter" stroke-miterlimit="10" stroke-dasharray="" stroke-dashoffset="0" font-family="none" font-weight="none" font-size="none" text-anchor="none" style="mix-blend-mode: normal" data-fill-palette-color="tertiary"></path></g><g transform="matrix(1,0,0,1,48.000000000000014,143.03988849290266)"><svg viewBox="0 0 223.99999999999997 73.92022301419465" height="73.92022301419465" width="223.99999999999997"><g><svg viewBox="0 0 419.4896435045317 138.432" height="73.92022301419465" width="223.99999999999997"><g transform="matrix(1,0,0,1,195.4896435045317,20.877631419939576)"><svg viewBox="0 0 224 96.67673716012084" height="96.67673716012084" width="224"><g id="textblocktransform"><svg viewBox="0 0 224 96.67673716012084" height="96.67673716012084" width="224" id="textblock"><g><svg viewBox="0 0 224 96.67673716012084" height="96.67673716012084" width="224"><g transform="matrix(1,0,0,1,0,0)"><svg width="224" viewBox="0.12000000476837158 -30.8799991607666 92.66999816894531 40" height="96.67673716012084" data-palette-color="url(#34fa8533-8e2d-40fe-be8a-d939b91de191)"></svg></g></svg></g></svg></g></svg></g><g><svg viewBox="0 0 138.432 138.432" height="138.432" width="138.432"><g><svg viewBox="0 0 138.432 138.432" height="138.432" width="138.432"><g transform="matrix(1,0,0,1,36.587264688927945,36.587264688927945)"><svg viewBox="0 0 65.2574706221441 65.2574706221441" height="65.2574706221441" width="65.2574706221441"><g><svg xmlns="http://www.w3.org/2000/svg" xmlns:xlink="http://www.w3.org/1999/xlink" version="1.1" x="0" y="0" viewBox="1 1 62 62" style="enable-background:new 0 0 64 64;" xml:space="preserve" height="65.2574706221441" width="65.2574706221441" class="icon-s-0" data-fill-palette-color="accent" id="s-0"></svg></g></svg></g><g></g></svg></g></svg></g></svg></g></svg></g></svg></g><defs></defs><mask id="5445af74-207b-44fd-9992-0d8191e28ddb"><g id="SvgjsG1849"><svg viewBox="0 0 320 360" height="360" width="320"><g><svg></svg></g><g><svg viewBox="0 0 320 360" height="360" width="320"><g></g><g transform="matrix(1,0,0,1,48.000000000000014,143.03988849290266)"><svg viewBox="0 0 223.99999999999997 73.92022301419465" height="73.92022301419465" width="223.99999999999997"><g><svg viewBox="0 0 419.4896435045317 138.432" height="73.92022301419465" width="223.99999999999997"><g transform="matrix(1,0,0,1,195.4896435045317,20.877631419939576)"><svg viewBox="0 0 224 96.67673716012084" height="96.67673716012084" width="224"><g id="SvgjsG1848"><svg viewBox="0 0 224 96.67673716012084" height="96.67673716012084" width="224" id="SvgjsSvg1847"><g><svg viewBox="0 0 224 96.67673716012084" height="96.67673716012084" width="224"><g transform="matrix(1,0,0,1,0,0)"><svg width="224" viewBox="0.12000000476837158 -30.8799991607666 92.66999816894531 40" height="96.67673716012084" data-palette-color="url(#34fa8533-8e2d-40fe-be8a-d939b91de191)"><path d="M9.04 8.2L9.04 8.2Q12.04 8.2 14.28 6.42 16.52 4.64 17.84 1.72 19.16-1.2 20.12-4.8 21.08-8.4 21.74-12.26 22.4-16.12 23.04-19.52L23.04-19.52Q24.48-27.4 26.92-29.56L26.92-29.56Q21.28-28.68 18.32-24.04L18.32-24.04Q16.48-21.2 16.48-18.48L16.48-18.48Q16.48-15.16 18.52-14.88L18.52-14.88Q18.68-14.84 18.84-14.84L18.84-14.84Q18.84-14.56 18.6-14.32L18.6-14.32Q18.16-13.88 17.4-13.88L17.4-13.88Q15.04-13.88 14.4-16.4L14.4-16.4Q14.16-17.24 14.16-18.16L14.16-18.16Q14.16-20.36 15.48-22.88L15.48-22.88Q17.88-27.48 22.96-29.4L22.96-29.4Q25.84-30.48 29.24-30.48L29.24-30.48Q29.68-30.48 29.92-30.28 30.16-30.08 30.2-29.68L30.2-29.68Q28-29.68 26.88-24.8L26.88-24.8Q26.4-22.52 25.96-19.62 25.52-16.72 25-13.5 24.48-10.28 23.8-7.06 23.12-3.84 21.9-0.94 20.68 1.96 19.06 4.22 17.44 6.48 14.88 7.8 12.32 9.12 9.6 9.12 6.88 9.12 5.16 8.44 3.44 7.76 2.4 6.6L2.4 6.6Q0.12 4 0.12 0.6L0.12 0.6Q0.12-3.12 1.56-5.64L1.56-5.64Q4.48-10.8 9.2-10.8L9.2-10.8Q10.04-10.8 10.54-10.36 11.04-9.92 11.12-9.52L11.12-9.52 11.2-9.08Q10.48-9.16 10.2-9.16L10.2-9.16Q5.88-9.16 3.52-4.8L3.52-4.8Q2.04-2.12 2.04 0.56L2.04 0.56Q2.04 2.2 2.56 3.84L2.56 3.84Q4.04 8.2 9.04 8.2ZM43.28 3L43.28 3Q43.76 3 44.18 2.58 44.6 2.16 44.96 1.28L44.96 1.28Q45 0.92 45.44 0.92 45.88 0.92 45.78 1.28 45.68 1.64 45.46 2.16 45.24 2.68 44.54 3.54 43.84 4.4 43.12 4.4L43.12 4.4Q41.52 4.4 40.64 2.4L40.64 2.4Q39.72 0.4 39.72-2.54 39.72-5.48 40.16-8.6L40.16-8.6 39.8-8.6Q34.96-0.16 32.36-0.16L32.36-0.16Q29.28-0.16 29.28-4.86 29.28-9.56 31.28-14.24L31.28-14.24Q33.48-19.4 35.16-19.4L35.16-19.4Q35.88-19.4 35.88-18.52L35.88-18.52Q34.2-14.08 33-9.88 31.8-5.68 31.8-3.62 31.8-1.56 32.76-1.56L32.76-1.56Q33.44-1.56 34.78-3.2 36.12-4.84 37.52-7.2L37.52-7.2Q40.52-12.28 42.1-15.84 43.68-19.4 45.36-19.4L45.36-19.4Q46.16-19.4 46.16-18.52L46.16-18.52Q43.6-13.44 42.52-6.4L42.52-6.4Q42.08-3.6 42.08-0.92L42.08-0.92Q42.08 3 43.28 3ZM51-6.48L51.36-6.48Q56.52-19.24 61.4-19.24L61.4-19.24Q63.44-19.24 63.44-17.28L63.44-17.28Q63.16-16.36 62.72-14.86 62.28-13.36 61.54-9.48 60.8-5.6 60.8-2.68L60.8-2.68Q60.8 1.56 62.04 1.56L62.04 1.56Q62.52 1.56 62.96 1.18 63.4 0.8 63.56 0.8L63.56 0.8Q64.12 0.8 63.56 1.68L63.56 1.68Q63.36 1.96 62.82 2.44 62.28 2.92 61.72 2.92L61.72 2.92Q60.2 2.92 59.34 0.74 58.48-1.44 58.48-4.92L58.48-4.92Q58.48-10.44 60.2-17.04L60.2-17.04Q60.36-17.56 59.88-17.56L59.88-17.56Q59.56-17.56 59.16-17.24L59.16-17.24Q57.24-15.56 55.12-11.68 53-7.8 51.8-4.74 50.6-1.68 50.6-1.18 50.6-0.68 50.04-0.68L50.04-0.68Q48.76-0.68 48.76-3.84L48.76-3.84Q48.76-9.8 49.98-14.64 51.2-19.48 52.92-19.48L52.92-19.48Q53.64-19.48 53.64-18.6L53.64-18.6Q51.8-12.64 51-6.48L51-6.48ZM78.51-12.44L78.51-12.44Q79.83-14.56 79.83-16.42 79.83-18.28 78.67-18.28L78.67-18.28Q77.27-18.28 75.49-15.82 73.71-13.36 72.33-10.24 70.95-7.12 69.99-4.46 69.03-1.8 69.03-1.24L69.03-1.24Q68.99-0.76 68.47-0.76L68.47-0.76Q67.27-0.76 67.27-3.96L67.27-3.96Q67.27-10.32 68.55-16.74 69.83-23.16 71.59-27.02 73.35-30.88 74.87-30.88L74.87-30.88Q75.51-30.88 75.51-30.24L75.51-30.24Q73.39-25.56 71.83-18.84L71.83-18.84Q70.55-13.64 69.67-7.68L69.67-7.68 69.99-7.68Q74.55-19.4 79.11-19.4L79.11-19.4Q81.95-19.4 81.95-16.16L81.95-16.16Q81.95-14.08 80.41-11.76 78.87-9.44 76.51-8.68L76.51-8.68Q76.99-8.24 78.47-3.2L78.47-3.2Q78.99-1.4 79.91 0.08 80.83 1.56 81.89 1.56 82.95 1.56 83.47 0.8L83.47 0.8Q83.71 0.8 83.71 1 83.71 1.2 83.51 1.6L83.51 1.6Q82.63 2.8 81.35 2.92L81.35 2.92Q79.71 2.92 78.27 1.24 76.83-0.44 76.03-2.44 75.23-4.44 74.53-6.42 73.83-8.4 73.67-8.64L73.67-8.64Q73.39-8.84 73.31-9.12L73.31-9.12Q76.47-9.12 78.51-12.44ZM85.47-3.4L85.47-3.4Q85.47-9.32 86.69-13.96 87.91-18.6 89.79-18.6L89.79-18.6Q90.71-18.6 90.71-17.6L90.71-17.6Q90.31-16.56 89.71-14.84 89.11-13.12 88.13-8.62 87.15-4.12 87.15-0.6L87.15-0.6Q87.15-0.04 86.55-0.04L86.55-0.04Q85.47-0.04 85.47-3.4ZM91.31-23.04L90.83-22.36Q89.99-22.36 89.99-23.96L89.99-23.96Q89.99-24.92 90.51-25.98 91.03-27.04 91.99-27.04L91.99-27.04Q92.79-27.04 92.79-26.12L92.79-26.12Q92.79-25.2 91.31-23.04L91.31-23.04Z" opacity="1" transform="matrix(1,0,0,1,0,0)" fill="white" class="wordmark-text-0" id="SvgjsPath1846"></path></svg></g></svg></g></svg></g></svg></g><g><svg viewBox="0 0 138.432 138.432" height="138.432" width="138.432"><g><svg viewBox="0 0 138.432 138.432" height="138.432" width="138.432"><g transform="matrix(1,0,0,1,36.587264688927945,36.587264688927945)"><svg viewBox="0 0 65.2574706221441 65.2574706221441" height="65.2574706221441" width="65.2574706221441"><g><svg xmlns="http://www.w3.org/2000/svg" xmlns:xlink="http://www.w3.org/1999/xlink" version="1.1" x="0" y="0" viewBox="1 1 62 62" style="enable-background:new 0 0 64 64;" xml:space="preserve" height="65.2574706221441" width="65.2574706221441" class="icon-s-0" data-fill-palette-color="accent" id="SvgjsSvg1845"></svg></g></svg></g><g></g></svg></g></svg></g></svg></g></svg></g></svg></g><defs><mask></mask></defs></svg></g></mask><linearGradient x1="0.054" x2="0.941" y1="0.5" y2="0.5" id="34fa8533-8e2d-40fe-be8a-d939b91de191"><stop stop-color="#0f3054" offset="0"></stop><stop stop-color="#3b8dcb" offset="0.498"></stop><stop stop-color="#0f3054" offset="1"></stop></linearGradient><rect width="320.00006103515625" height="360" fill="url(#34fa8533-8e2d-40fe-be8a-d939b91de191)" mask="url(#5445af74-207b-44fd-9992-0d8191e28ddb)" data-fill-palette-color="primary"></rect><mask id="8d950c98-9dbb-4491-a05b-6fd50ba50114"><g id="SvgjsG1858"><svg viewBox="0 0 320 360" height="360" width="320"><g><svg></svg></g><g><svg viewBox="0 0 320 360" height="360" width="320"><g></g><g transform="matrix(1,0,0,1,48.000000000000014,143.03988849290266)"><svg viewBox="0 0 223.99999999999997 73.92022301419465" height="73.92022301419465" width="223.99999999999997"><g><svg viewBox="0 0 419.4896435045317 138.432" height="73.92022301419465" width="223.99999999999997"><g transform="matrix(1,0,0,1,195.4896435045317,20.877631419939576)"><svg viewBox="0 0 224 96.67673716012084" height="96.67673716012084" width="224"><g id="SvgjsG1857"><svg viewBox="0 0 224 96.67673716012084" height="96.67673716012084" width="224" id="SvgjsSvg1856"><g><svg viewBox="0 0 224 96.67673716012084" height="96.67673716012084" width="224"><g transform="matrix(1,0,0,1,0,0)"><svg width="224" viewBox="0.12000000476837158 -30.8799991607666 92.66999816894531 40" height="96.67673716012084" data-palette-color="url(#34fa8533-8e2d-40fe-be8a-d939b91de191)"></svg></g></svg></g></svg></g></svg></g><g><svg viewBox="0 0 138.432 138.432" height="138.432" width="138.432"><g><svg viewBox="0 0 138.432 138.432" height="138.432" width="138.432"><g transform="matrix(1,0,0,1,36.587264688927945,36.587264688927945)"><svg viewBox="0 0 65.2574706221441 65.2574706221441" height="65.2574706221441" width="65.2574706221441"><g><svg xmlns="http://www.w3.org/2000/svg" xmlns:xlink="http://www.w3.org/1999/xlink" version="1.1" x="0" y="0" viewBox="1 1 62 62" style="enable-background:new 0 0 64 64;" xml:space="preserve" height="65.2574706221441" width="65.2574706221441" class="icon-s-0" data-fill-palette-color="accent" id="SvgjsSvg1855"><path d="M32 1C1.695 1 1.003 19.792 1 20v2c0 3.147 2.437 5.731 5.522 5.976l12.46 14.377L15 49.748V53h-2c-2.757 0-5 2.243-5 5s2.243 5 5 5h12c2.757 0 5-2.243 5-5 0-1.13-0.391-2.162-1.026-3h6.051C34.391 55.838 34 56.87 34 58c0 2.757 2.243 5 5 5h12c2.757 0 5-2.243 5-5s-2.243-5-5-5h-2v-3.252l-3.982-7.395 12.46-14.377C60.563 27.731 63 25.147 63 22v-2.019C62.997 19.792 62.305 1 32 1zM41 47v2h-2.142l-0.769-5h5.545l2.692 5H43v-2H41zM31 47v2h-3.834l0.769-5h8.13l0.769 5H33v-2H31zM21 47v2h-3.326l2.692-5h5.545l-0.769 5H23v-2H21zM23.597 38h3.237l-0.615 4h-4.776L23.597 38zM37 34v2H27v-2H37zM28.858 38h6.284l0.615 4h-7.515L28.858 38zM37.166 38h3.237l2.154 4h-4.776L37.166 38zM41.597 36H39v-2h2v-2H23v2h2v2h-2.597l-1.17 2.174-2.949-10.322c1.543-0.338 2.869-1.263 3.717-2.538C23.076 26.932 24.916 28 27 28s3.924-1.068 5-2.687C33.076 26.932 34.916 28 37 28s3.924-1.068 5-2.687c0.848 1.275 2.174 2.2 3.717 2.538l-2.949 10.322L41.597 36zM31 4.152V22c0 2.206-1.794 4-4 4s-4-1.794-4-4C23 12.816 28.283 6.694 31 4.152zM37 26c-2.206 0-4-1.794-4-4V4.152c2.717 2.542 8 8.665 8 17.848C41 24.206 39.206 26 37 26zM21 22c0 2.206-1.794 4-4 4-2.127 0-3.855-1.673-3.977-3.77 0.239-6.308 3.412-11.43 9.458-15.226 1.954-1.227 3.918-2.117 5.568-2.746C25 7.579 21 13.545 21 22zM12 25.313c0.941 1.416 2.468 2.411 4.232 2.638l3.484 12.194L8.91 27.676C10.182 27.247 11.27 26.412 12 25.313zM47.768 27.951c1.764-0.226 3.29-1.221 4.232-2.638 0.73 1.099 1.818 1.934 3.09 2.363L44.284 40.145 47.768 27.951zM47 26c-2.206 0-4-1.794-4-4 0-8.441-3.987-14.401-7.033-17.726 5.52 2.127 14.605 7.255 15.006 17.995C50.831 24.348 49.113 26 47 26zM3 22v-1.979C3.016 19.388 3.629 5.797 25.077 3.373 19.188 6.119 11.509 11.672 11.037 22H11c0 2.206-1.794 4-4 4S3 24.206 3 22zM17 57v-2h4v2H17zM21 59v2h-4v-2H21zM13 55h2v2h-4.816C10.598 55.839 11.698 55 13 55zM10.184 59H15v2h-2C11.698 61 10.598 60.161 10.184 59zM25 61h-2v-2h4.816C27.402 60.161 26.302 61 25 61zM27.816 57H23v-2h2C26.302 55 27.402 55.839 27.816 57zM43 57v-2h4v2H43zM47 59v2h-4v-2H47zM41 57h-4.816c0.414-1.161 1.514-2 2.816-2h2V57zM36.184 59H41v2h-2C37.698 61 36.598 60.161 36.184 59zM51 61h-2v-2h4.816C53.402 60.161 52.302 61 51 61zM53.816 57H49v-2h2C52.302 55 53.402 55.839 53.816 57zM39 53H25h-8v-2h30v2H39zM61 22c0 2.206-1.794 4-4 4s-4-1.794-4-4h-0.037c-0.473-10.328-8.151-15.881-14.04-18.627C60.371 5.797 60.984 19.386 61 20V22z" fill="white"></path></svg></g></svg></g><g><path d="M27.85 52.825v0c0.693-1.465 0.862-2.946 0.508-4.442-0.351-1.503-1.083-2.915-2.197-4.236-1.123-1.317-2.451-2.625-3.984-3.924-1.536-1.292-3.169-2.544-4.9-3.756-1.728-1.218-3.349-2.373-4.861-3.466v0c-3.512-2.518-5.513-4.624-6.002-6.317v0c-0.87 2.954-0.516 5.69 1.063 8.205v0c0.956 1.553 2.1 2.644 3.43 3.273v0c1.62 0.766 2.733 0.682 3.339-0.25v0c0.056-0.068 0.102-0.141 0.138-0.217v0c0.135 0.064 0.233 0.181 0.294 0.351v0c0.118 0.315 0.089 0.66-0.087 1.032v0c-0.544 1.151-1.503 1.59-2.876 1.318v0c-0.469-0.072-0.929-0.215-1.379-0.428v0c-1.073-0.507-2.07-1.376-2.991-2.605v0c-1.69-2.23-2.419-4.805-2.188-7.723v0c0.138-1.657 0.6-3.314 1.384-4.972v0c0.1-0.212 0.229-0.352 0.387-0.419 0.151-0.07 0.328-0.069 0.529 0.003v0c-0.507 1.073 0.299 2.445 2.419 4.116v0c1.003 0.757 2.161 1.576 3.474 2.456 1.311 0.887 2.694 1.828 4.151 2.823 1.447 0.999 2.877 2.032 4.29 3.102 1.417 1.079 2.692 2.248 3.826 3.508 1.131 1.266 2.06 2.554 2.785 3.865 0.732 1.313 1.124 2.745 1.178 4.296 0.053 1.551-0.235 2.991-0.864 4.322-0.626 1.324-1.304 2.325-2.033 3.002-0.726 0.687-1.492 1.151-2.297 1.391v0c-1.798 0.51-3.523 0.375-5.175-0.406v0c-1.819-0.86-3.177-1.93-4.073-3.212v0c-1.838-2.615-2.214-5.073-1.126-7.374v0c0.194-0.411 0.456-0.689 0.783-0.833 0.328-0.144 0.6-0.188 0.818-0.132v0l0.345 0.093c-0.206 0.335-0.34 0.57-0.404 0.705v0c-0.997 2.108-0.703 4.24 0.88 6.397v0c0.964 1.337 2.099 2.314 3.404 2.93v0c0.803 0.38 1.663 0.633 2.578 0.759v0c2.471 0.28 4.282-0.799 5.434-3.235z" fill="white"></path><path d="M50.872 22.161v0c0.235-0.119 0.402-0.332 0.501-0.637 0.093-0.303 0.121-0.711 0.083-1.226v0c-0.068-0.181 0.003-0.324 0.212-0.431 0.209-0.106 0.335-0.062 0.378 0.131 0.036 0.197 0.068 0.448 0.095 0.753 0.018 0.302-0.035 0.747-0.159 1.337-0.127 0.583-0.364 0.962-0.713 1.139v0c-0.767 0.389-1.608 0.21-2.521-0.537v0c-0.933-0.738-1.758-1.814-2.476-3.228-0.718-1.414-1.35-2.926-1.898-4.538v0l-0.266 0.135c-0.263 5.245-1.019 8.184-2.268 8.818v0c-1.483 0.753-2.8-0.002-3.949-2.264-1.146-2.257-1.809-4.755-1.988-7.495v0c-0.203-3.022 0.098-4.738 0.903-5.147v0c0.349-0.177 0.631-0.053 0.847 0.372v0c0.273 2.548 0.633 4.977 1.08 7.285 0.45 2.315 0.926 3.967 1.428 4.956 0.505 0.995 0.989 1.375 1.452 1.141v0c0.33-0.167 0.613-0.81 0.852-1.928 0.247-1.114 0.419-2.409 0.514-3.885v0c0.203-3.181 0.25-5.82 0.142-7.918-0.108-2.098 0.24-3.351 1.045-3.76v0c0.387-0.196 0.688-0.082 0.903 0.343v0c0.01 3.065 0.614 6.422 1.813 10.071v0c0.47 1.46 1.032 2.833 1.686 4.119v0c0.959 1.889 1.727 2.687 2.304 2.394z" fill="white"></path><path d="M71.594 11.235l0.296 0.038c3.628-6.475 6.746-9.547 9.356-9.214v0c1.093 0.139 1.573 0.734 1.438 1.785v0c-0.211 0.475-0.484 1.099-0.819 1.874-0.341 0.766-0.842 2.165-1.502 4.195-0.659 2.023-1.089 3.817-1.288 5.383v0c-0.289 2.264-0.101 3.438 0.561 3.522v0c0.254 0.032 0.513-0.035 0.778-0.202 0.259-0.175 0.431-0.257 0.516-0.246v0c0.303 0.039 0.274 0.271-0.089 0.698v0c-0.126 0.142-0.349 0.321-0.671 0.538-0.322 0.224-0.632 0.317-0.928 0.28v0c-0.818-0.104-1.382-0.771-1.691-2-0.31-1.222-0.346-2.764-0.109-4.626v0c0.377-2.955 1.249-6.141 2.616-9.557v0c0.127-0.263 0.06-0.412-0.202-0.445v0c-0.169-0.022-0.37 0.039-0.603 0.181v0c-1.144 0.764-2.416 2.114-3.817 4.05-1.4 1.929-2.525 3.67-3.375 5.225-0.851 1.561-1.293 2.473-1.327 2.733-0.034 0.268-0.199 0.383-0.495 0.346v0c-0.691-0.088-0.929-0.975-0.715-2.661v0c0.407-3.195 1.104-6.044 2.09-8.549 0.986-2.505 1.937-3.699 2.854-3.581v0c0.388 0.049 0.552 0.31 0.491 0.782v0c-1.394 3.062-2.515 6.212-3.365 9.451z" fill="white"></path><path d="M111.095 24.103v0c1.293-0.379 2.274-0.941 2.942-1.688 0.669-0.747 0.77-1.329 0.304-1.746v0c-0.561-0.503-1.643-0.579-3.245-0.229-1.597 0.345-3.236 0.896-4.916 1.654-1.68 0.757-3.192 1.498-4.537 2.221-1.34 0.718-2.112 1.192-2.315 1.419v0c-0.187 0.176-0.383 0.172-0.59-0.012v0c-0.482-0.432-0.149-1.288 0.998-2.57v0c2.291-2.558 4.848-4.897 7.671-7.017 2.823-2.119 5.285-3.637 7.384-4.554 2.094-0.921 3.448-1.107 4.063-0.556v0c0.254 0.228 0.265 0.471 0.033 0.731v0c-2.536 1.117-5.326 2.746-8.37 4.887v0c-2.382 1.627-4.823 3.478-7.321 5.555v0l0.19 0.171c6.049-3.068 9.989-3.781 11.822-2.141v0c1.144 1.024 1.133 2.188-0.034 3.491v0c-0.749 0.837-1.851 1.444-3.305 1.822-1.454 0.377-2.791 0.292-4.009-0.255v0c0.029 0.351-0.562 1.806-1.776 4.365v0c-0.443 0.911-0.745 1.828-0.905 2.754-0.16 0.925-0.029 1.577 0.395 1.957 0.429 0.384 0.882 0.518 1.359 0.4v0c0.095 0.085 0.107 0.168 0.036 0.248-0.071 0.079-0.218 0.163-0.439 0.251v0c-0.786 0.164-1.46 0.043-2.022-0.365v0c-0.657-0.588-0.97-1.48-0.94-2.674 0.02-1.194 0.231-2.336 0.634-3.426 0.398-1.094 0.812-2.164 1.242-3.21 0.431-1.046 0.659-1.648 0.686-1.805v0c-0.045-0.184-0.034-0.346 0.034-0.486v0c1.271 1.138 2.915 1.407 4.931 0.808z" fill="white"></path><path d="M118.557 48.765v0c3.045-0.958 5.859-1.5 8.443-1.626 2.586-0.12 4.031 0.305 4.336 1.274v0c0.147 0.468-0.037 0.783-0.552 0.945v0c-0.6-0.035-1.388-0.066-2.366-0.094-0.987-0.033-2.715 0.064-5.186 0.289-2.473 0.219-4.614 0.613-6.425 1.183v0c-0.292 0.092-0.485-0.015-0.581-0.321v0c-0.175-0.556 0.602-1.106 2.331-1.65zM135.132 48.505l-0.634-0.203c-0.137-0.434 0.206-0.78 1.026-1.038v0c0.495-0.156 1.056-0.187 1.682-0.093 0.635 0.099 1.03 0.395 1.185 0.89v0c0.128 0.407-0.045 0.685-0.52 0.835v0c-0.475 0.149-1.388 0.019-2.739-0.391z" fill="white"></path><path d="M2.008 94.857v0c0.539 1.246 1.377 2.173 2.515 2.781 1.141 0.614 2.435 0.93 3.884 0.947 1.444 0.026 3-0.085 4.666-0.333 1.666-0.248 3.358-0.581 5.075-0.998 1.717-0.417 3.339-0.797 4.864-1.139v0c3.526-0.82 5.955-0.917 7.286-0.292v0c-1.376-2.178-3.291-3.464-5.746-3.859v0c-1.505-0.256-2.822-0.139-3.951 0.349v0c-1.377 0.595-1.941 1.343-1.691 2.241v0c0.015 0.071 0.037 0.139 0.065 0.205v0c-0.117 0.051-0.246 0.048-0.387-0.007v0c-0.262-0.104-0.462-0.315-0.6-0.636v0c-0.423-0.979-0.169-1.825 0.763-2.537v0c0.304-0.247 0.648-0.454 1.032-0.62v0c0.907-0.392 2.003-0.545 3.288-0.458v0c2.337 0.175 4.359 1.144 6.067 2.907v0c0.96 1.002 1.745 2.208 2.354 3.618v0c0.079 0.183 0.101 0.34 0.065 0.472-0.043 0.135-0.141 0.247-0.296 0.337v0c-0.395-0.914-1.704-1.165-3.927-0.753v0c-1.034 0.207-2.194 0.48-3.48 0.819-1.28 0.336-2.632 0.685-4.056 1.045-1.431 0.363-2.873 0.692-4.325 0.987-1.459 0.298-2.899 0.452-4.32 0.462-1.424 0.019-2.749-0.105-3.973-0.374-1.23-0.266-2.349-0.812-3.357-1.639-0.999-0.823-1.742-1.799-2.23-2.928-0.488-1.129-0.746-2.11-0.773-2.942-0.027-0.833 0.107-1.572 0.4-2.218v0c0.67-1.405 1.71-2.413 3.12-3.022v0c1.54-0.666 2.961-0.928 4.262-0.785v0c2.665 0.288 4.42 1.408 5.263 3.359v0c0.152 0.352 0.182 0.672 0.09 0.96-0.095 0.281-0.217 0.474-0.367 0.577v0l-0.248 0.177c-0.097-0.314-0.171-0.53-0.222-0.647v0c-0.773-1.788-2.275-2.781-4.506-2.978v0c-1.375-0.134-2.62 0.041-3.736 0.523v0c-0.679 0.293-1.311 0.695-1.896 1.203v0c-1.542 1.395-1.866 3.127-0.972 5.196z" fill="white"></path><path d="M39.161 131.696v0c0.193 0.106 0.42 0.121 0.681 0.045 0.254-0.079 0.549-0.254 0.884-0.524v0c0.097-0.133 0.233-0.152 0.408-0.056 0.174 0.096 0.201 0.203 0.078 0.323-0.116 0.123-0.274 0.263-0.474 0.421-0.2 0.158-0.535 0.331-1.003 0.519-0.462 0.192-0.837 0.21-1.124 0.053v0c-0.629-0.346-0.9-1.013-0.811-2.003v0c0.067-0.993 0.418-2.07 1.055-3.228 0.64-1.165 1.386-2.317 2.238-3.456v0l-0.215-0.118c-3.747 2.29-6.135 3.153-7.163 2.588v0c-1.221-0.671-1.321-1.938-0.298-3.801 1.02-1.857 2.435-3.497 4.246-4.919v0c1.991-1.559 3.32-2.155 3.988-1.789v0c0.28 0.154 0.327 0.402 0.138 0.745v0c-1.625 1.395-3.135 2.792-4.528 4.193-1.387 1.404-2.305 2.514-2.754 3.33-0.448 0.816-0.482 1.329-0.102 1.538v0c0.268 0.147 0.845 0.042 1.731-0.316 0.892-0.354 1.869-0.848 2.93-1.481v0c2.295-1.359 4.141-2.572 5.538-3.638 1.403-1.063 2.437-1.411 3.104-1.045v0c0.312 0.171 0.373 0.428 0.185 0.77v0c-2.115 1.459-4.152 3.463-6.111 6.013v0c-0.784 1.013-1.468 2.053-2.053 3.118v0c-0.852 1.552-1.041 2.458-0.568 2.718z" fill="white"></path><path d="M71.704 131.859l0.244-0.026c1.701-5.973 3.652-9.076 5.85-9.311v0c0.912-0.097 1.415 0.293 1.508 1.169v0c-0.083 0.431-0.187 0.992-0.314 1.685-0.126 0.693-0.263 1.93-0.409 3.712-0.147 1.774-0.15 3.319-0.01 4.634v0c0.203 1.902 0.583 2.823 1.142 2.763v0c0.219-0.023 0.419-0.13 0.598-0.321 0.18-0.191 0.305-0.29 0.376-0.297v0c0.247-0.026 0.269 0.172 0.063 0.593v0c-0.078 0.137-0.226 0.324-0.444 0.563-0.224 0.246-0.46 0.381-0.707 0.407v0c-0.686 0.073-1.272-0.361-1.758-1.303-0.493-0.934-0.823-2.186-0.991-3.755v0c-0.264-2.474-0.168-5.237 0.286-8.289v0c0.046-0.241-0.037-0.35-0.249-0.327v0c-0.141 0.015-0.296 0.107-0.464 0.275v0c-0.783 0.841-1.555 2.185-2.316 4.032-0.769 1.841-1.349 3.479-1.739 4.915-0.398 1.429-0.585 2.257-0.561 2.484 0.024 0.226-0.088 0.353-0.335 0.379v0c-0.58 0.062-0.945-0.618-1.097-2.039v0c-0.286-2.679-0.268-5.134 0.052-7.363 0.319-2.236 0.864-3.395 1.635-3.477v0c0.325-0.035 0.509 0.146 0.551 0.542v0c-0.542 2.767-0.845 5.552-0.911 8.355z" fill="white"></path><path d="M108.305 111.727v0c-0.184-1.115-0.553-1.988-1.106-2.619-0.553-0.631-1.028-0.773-1.423-0.425v0c-0.476 0.417-0.65 1.308-0.522 2.671 0.127 1.364 0.42 2.781 0.878 4.251 0.463 1.476 0.927 2.809 1.393 3.998 0.466 1.189 0.781 1.877 0.946 2.065v0c0.135 0.175 0.114 0.34-0.063 0.494v0c-0.406 0.356-1.087-0.011-2.043-1.101v0c-1.894-2.159-3.579-4.516-5.054-7.071-1.48-2.56-2.497-4.76-3.052-6.6-0.55-1.835-0.568-2.977-0.056-3.427v0c0.219-0.192 0.425-0.179 0.617 0.04v0c0.671 2.22 1.743 4.704 3.216 7.45v0c1.114 2.143 2.41 4.359 3.887 6.648v0l0.161-0.141c-1.938-5.336-2.132-8.684-0.582-10.043v0c0.962-0.844 1.924-0.718 2.884 0.377v0c0.619 0.705 1.013 1.683 1.184 2.934 0.171 1.24-0.03 2.343-0.602 3.308v0c0.292 0.009 1.439 0.648 3.441 1.918v0c0.711 0.455 1.444 0.795 2.2 1.021 0.751 0.23 1.305 0.189 1.664-0.126 0.363-0.319 0.521-0.684 0.472-1.095v0c0.08-0.07 0.151-0.071 0.211-0.001 0.056 0.064 0.111 0.196 0.163 0.396v0c0.057 0.669-0.112 1.214-0.507 1.637v0c-0.556 0.488-1.33 0.661-2.324 0.52-0.988-0.145-1.916-0.438-2.784-0.877-0.868-0.44-1.715-0.893-2.541-1.36-0.831-0.462-1.309-0.71-1.432-0.744v0c-0.157 0.015-0.289-0.011-0.396-0.078v0c1.074-0.942 1.464-2.282 1.17-4.02z" fill="white"></path><path d="M128.811 90.602v0c-2.559-0.773-4.762-1.728-6.61-2.865-1.849-1.131-2.651-2.104-2.404-2.921v0c0.119-0.395 0.397-0.526 0.832-0.395v0c0.398 0.306 0.927 0.704 1.59 1.193 0.664 0.483 1.905 1.229 3.724 2.239 1.819 1.01 3.491 1.745 5.015 2.206v0c0.238 0.072 0.318 0.237 0.24 0.496v0c-0.142 0.47-0.938 0.485-2.387 0.047zM117.214 82.966l0.347 0.439c-0.111 0.368-0.51 0.447-1.198 0.24v0c-0.415-0.125-0.82-0.37-1.215-0.735-0.388-0.362-0.52-0.751-0.394-1.166v0c0.105-0.347 0.358-0.46 0.76-0.339v0c0.395 0.119 0.962 0.64 1.7 1.561z" fill="white"></path><path d="M0 68.628c0-5.271 4.273-9.545 9.545-9.545 5.271 0 9.545 4.273 9.544 9.545 0 5.271-4.273 9.545-9.544 9.545-5.271 0-9.545-4.273-9.545-9.545z" fill="white"></path><path d="M117.847 68.628c0-5.271 4.273-9.545 9.545-9.545 5.271 0 9.545 4.273 9.544 9.545 0 5.271-4.273 9.545-9.544 9.545-5.271 0-9.545-4.273-9.545-9.545z" fill="white"></path></g></svg></g></svg></g></svg></g></svg></g></svg></g><defs><mask></mask></defs><mask><g id="SvgjsG1854"><svg viewBox="0 0 320 360" height="360" width="320"><g><svg></svg></g><g><svg viewBox="0 0 320 360" height="360" width="320"><g></g><g transform="matrix(1,0,0,1,48.000000000000014,143.03988849290266)"><svg viewBox="0 0 223.99999999999997 73.92022301419465" height="73.92022301419465" width="223.99999999999997"><g><svg viewBox="0 0 419.4896435045317 138.432" height="73.92022301419465" width="223.99999999999997"><g transform="matrix(1,0,0,1,195.4896435045317,20.877631419939576)"><svg viewBox="0 0 224 96.67673716012084" height="96.67673716012084" width="224"><g id="SvgjsG1853"><svg viewBox="0 0 224 96.67673716012084" height="96.67673716012084" width="224" id="SvgjsSvg1852"><g><svg viewBox="0 0 224 96.67673716012084" height="96.67673716012084" width="224"><g transform="matrix(1,0,0,1,0,0)"><svg width="224" viewBox="0.12000000476837158 -30.8799991607666 92.66999816894531 40" height="96.67673716012084" data-palette-color="url(#34fa8533-8e2d-40fe-be8a-d939b91de191)"></svg></g></svg></g></svg></g></svg></g><g><svg viewBox="0 0 138.432 138.432" height="138.432" width="138.432"><g><svg viewBox="0 0 138.432 138.432" height="138.432" width="138.432"><g transform="matrix(1,0,0,1,36.587264688927945,36.587264688927945)"><svg viewBox="0 0 65.2574706221441 65.2574706221441" height="65.2574706221441" width="65.2574706221441"><g><svg xmlns="http://www.w3.org/2000/svg" xmlns:xlink="http://www.w3.org/1999/xlink" version="1.1" x="0" y="0" viewBox="1 1 62 62" style="enable-background:new 0 0 64 64;" xml:space="preserve" height="65.2574706221441" width="65.2574706221441" class="icon-s-0" data-fill-palette-color="accent" id="SvgjsSvg1850"></svg></g></svg></g><g></g></svg></g></svg></g></svg></g></svg></g></svg></g><defs><mask></mask></defs></svg></g></mask></svg></g></mask><linearGradient x1="0.054" x2="0.941" y1="0.5" y2="0.5" id="b6e6f6f5-dec0-4600-be6b-f1435bf64f6e"><stop stop-color="#0f3054" offset="0"></stop><stop stop-color="#3b8dcb" offset="0.498"></stop><stop stop-color="#0f3054" offset="1"></stop></linearGradient><rect width="320.00006103515625" height="360" fill="url(#b6e6f6f5-dec0-4600-be6b-f1435bf64f6e)" mask="url(#8d950c98-9dbb-4491-a05b-6fd50ba50114)" data-fill-palette-color="accent"></rect><mask id="1ec1ea13-f29c-4010-95d5-4b77d2e241f6"><g id="SvgjsG1875"><svg viewBox="0 0 320 360" height="360" width="320"><g><svg></svg></g><g><svg viewBox="0 0 320 360" height="360" width="320"><g><path xmlns="http://www.w3.org/2000/svg" d="M219.58 41.008c0.707 0 6.365 2.829 9.547 3.89-1.061 0.354-3.536-0.707-6.365-1.768 0.707 0 2.122 0.354 3.536 1.06-0.707-0.707-6.011-2.475-6.718-3.182M166.895 30.047c1.061-0.354 13.436 1.414 19.094 1.768 0.354-0.354-0.707-0.354-2.122-0.707 1.768-0.354 5.304 0.707 7.779 1.06-7.425 0.354-15.558-1.768-22.629-1.06-2.475 0-0.707-0.707-2.122-1.061M156.641 30.047c6.365 0 11.315 0 2.121 0.707-1.061-0.354-2.475-0.354-2.121-0.707M256.707 59.395c0.707 0 3.536 3.182 4.95 4.243-0.354 0.354-3.182-2.475-4.596-3.536 0.354 0.354 0 0-0.354-0.707M249.635 54.798c-2.829-2.475-3.889-2.475-4.243-3.889 2.475 1.414 4.243 2.829 4.243 3.889M204.022 32.522c0.354-0.354 1.061 0.354 2.829 0.707-2.122-0.354-1.768 0-1.061 0.707-2.475-0.354-3.182-0.707-2.475-1.414 1.414 0.707 1.768 0.354 0.707 0M103.602 36.765c0-0.354 1.414-1.061 2.475-1.414-1.061 0.707-0.707 1.061 1.061 0.353 0 0.354-2.122 1.061-3.536 1.768 0.707-0.354 1.414-1.414 0-0.707M211.094 28.986c-1.061 0.354-4.95-1.768-8.84-2.475-2.122-0.707 8.486 1.768 8.84 2.475M2.475 203.66c2.122 8.84 0.707 8.486 0 0M2.829 150.621c0.354-1.414 0.707-5.304 1.06-4.95-1.061 8.486-2.829 12.376-3.182 18.74 1.061-5.657-0.354 3.182-0.707 5.304 0.354 2.829 0.354-1.768 1.061-1.06 0.707 1.061-1.414 15.912-0.707 7.779-0.707 7.425 0 15.558 1.414 17.679-1.768 11.315 7.072 36.773 8.84 42.077 0.354 0.354 0-1.768 0.707-0.353 0.707 4.597 3.889 7.779 4.95 12.729 1.061 1.414 5.304 9.193 6.011 10.962 1.414 2.829 2.122 2.475 3.536 5.303 4.243 8.133 10.961 15.912 17.326 23.337 20.508 24.044 51.978 43.845 86.984 50.918 35.006 7.425 71.779 2.122 100.419-11.669 1.768-1.061 1.414-1.414 3.536-2.122 9.901-3.182 21.923-13.436 28.641-17.326 3.182-3.536 11.669-9.547 12.73-13.082 6.011-4.95 12.022-13.083 15.204-18.387 1.768-2.829 3.182-2.829 3.889-4.597-0.354 0 5.657-7.425 7.426-11.668-0.707 0-1.768 2.122-1.768 0 12.729-24.398 19.801-57.282 15.911-79.912 0.707 27.934-6.365 59.05-19.801 78.851-6.011 12.729-18.387 26.519-29.701 36.42-1.768 1.768-3.536 3.889-5.658 5.304-6.718 5.657-14.144 10.254-21.922 14.497-18.387 10.254-38.895 19.094-62.94 19.447 41.37-3.536 78.497-24.398 99.006-49.856-15.558 15.204-22.276 21.215-39.602 30.055-1.414 2.475-13.083 7.425-20.862 9.547 4.597-2.122 14.144-5.657 17.326-8.486-25.812 12.376-54.453 19.448-81.326 15.558 10.254 0 24.751 0.354 38.541-2.121 2.122-0.707 3.182-1.414 5.658-1.768 26.873-6.011 52.685-19.094 71.072-37.481-10.608 9.547-26.519 20.862-36.774 24.398 9.547-5.304 26.873-15.558 32.53-23.337-11.315 11.315-32.53 22.63-45.966 27.58-2.122 0.354 1.414-1.414-2.122 0-4.243 1.061-2.475 1.061-3.536 1.768-16.265 4.597-35.006 8.486-50.563 7.072-2.829-0.354-3.889-1.061-6.365-1.061-2.829-0.354-5.304-0.354-8.486-0.354-12.376-1.414-25.812-6.365-35.713-10.607-5.304-2.475-10.608-4.243-15.912-7.426-4.243-2.475-7.779-5.304-11.314-8.132-13.436-9.901-24.751-19.801-35.36-33.945-19.094-26.519-28.994-59.757-27.58-92.641 1.414-32.884 14.497-65.061 35.359-88.752-1.061 1.061 1.414-2.475 3.536-4.596 0 0.707-0.354 1.768 2.122-0.707 2.122-2.475-0.707-0.707 0.353-2.122 21.923-24.044 60.111-43.492 99.36-44.199 1.414-1.061 3.889-2.475 6.718-1.768 0 0.354-1.768 0.354-1.768 0.354 3.889-0.354 7.425-0.354 9.193 0.353 0.354-0.354-1.414-0.707 0-0.707 2.475 0.707 3.182 0 4.597 0.707-1.061 0-2.122 0-2.829 0.354 8.84 0 14.497 2.122 23.337 2.829-4.597-1.061-5.657-1.061-9.193-2.122 3.889 0.707 5.657 1.414 7.425 1.061-0.707 0-0.354-1.061 0.354-0.707 7.072 1.768 7.779 2.475 15.204 4.95 0.707-0.707-3.182-1.061-4.243-2.122 7.072 2.475 13.436 4.243 17.68 7.072-1.414-1.061-5.657-2.475-8.84-3.889-0.354 0.354 1.061 0.707 1.414 1.414-3.536-1.768-8.486-3.536-13.436-4.243 4.243 1.061 7.072 2.475 8.84 3.182-3.889-0.707-8.84-3.182-14.498-4.243 9.193 2.829 26.519 9.193 37.127 14.851-3.889-2.475-8.486-4.243-10.961-5.657 2.122 0.354 4.597 1.768 4.597 1.06 2.475 1.061 5.657 3.536 7.425 3.89-3.182-2.122-9.547-5.304-11.668-6.365 26.519 12.022 50.21 32.177 65.414 57.989 1.414 2.475 3.536 8.133 5.304 8.84-0.354-1.768-1.768-2.829-3.182-5.657 0.707 0 0.707-1.061 0-2.122-1.414-1.768 0 1.414-1.415-0.354-6.365-11.669-14.144-21.923-26.165-33.237 6.718 6.365 1.768 1.768 0.353-0.354 9.193 8.133 19.801 21.923 24.398 28.995-0.707-1.061-1.061-1.768-0.707-1.768 8.486 14.497 13.79 27.58 19.094 46.32 0.354 0.354 0-1.414 0.707-0.353 3.536 14.851 4.597 27.227 4.243 38.541 2.829-19.094-3.536-48.796-14.851-72.133-1.414-2.829-1.414-0.707-2.829-3.889 0-1.061-1.061-3.182-1.768-4.597-14.144-23.337-31.47-39.956-51.978-53.038 1.414 0.707 4.243 2.829 4.244 2.475-38.188-25.105-82.387-28.641-118.807-20.862-2.475 1.061-3.536 2.122-6.365 3.536 5.304-1.768 8.486-2.122 13.437-3.183 1.061-1.061-4.597 0.354-2.122-0.707 0.354 0.354 4.95-0.707 6.011-0.353 0 0.354-1.414 0.707-1.768 1.06 11.669-2.475 23.691-2.829 33.945-2.121-6.011 0.354-16.972-0.707-20.508 1.061 3.536-0.354 8.486-0.707 11.668-0.354-4.243 0-12.022 0.354-15.558 0.707-0.354-0.354 5.657-1.061 1.768-1.06-1.768 0.354-4.597 0.354-5.657 1.414-30.409 2.829-60.111 18.74-80.973 37.481-4.243 3.536-9.193 7.425-12.375 11.314-7.779 8.84-12.729 17.68-18.387 25.459 3.536-7.425 11.315-18.74 20.508-28.287 9.193-9.547 19.094-17.68 24.398-21.923 0 1.414 8.486-5.304 11.669-7.425-2.122 1.768 1.414-0.707 2.121-0.354 11.315-6.718 20.508-9.193 30.763-13.083-2.475 0.707-4.597 1.414-4.951 1.061 2.475-0.707 3.889-1.414 3.536-1.768-9.901 2.829-25.459 9.547-37.834 16.972 22.276-15.204 50.564-24.398 78.497-24.751 27.934-0.707 55.16 6.365 76.729 17.68 14.497 6.365 28.287 18.033 39.249 29.348 3.182 2.829 0.707-0.707 5.304 4.243-1.414-0.707-2.475-1.414-0.707 0.707 2.829 3.182-0.707-2.475 3.889 3.182-0.354 0-1.768-1.768-1.768-1.061 12.376 10.961 21.923 30.762 27.58 43.846-1.414-5.304-4.95-12.729-7.779-18.033 8.486 15.558 11.315 24.751 14.851 38.541 1.414 1.061-0.707-4.95 0.707-2.121 0.354 2.122 0.707 8.84 2.122 9.9-1.061-6.718-2.829-14.851-4.243-16.265 1.061 0.707-1.768-8.133-3.536-10.254-0.707-5.657-5.657-15.558-9.901-22.984-15.204-29.702-42.431-54.099-72.839-67.536 0-0.707-1.768-1.414-2.476-2.121-30.055-12.729-66.122-16.265-100.773-8.133-35.006 8.486-67.889 28.641-91.227 57.636 1.061-3.536 9.901-10.254 10.255-13.083-10.254 10.961-21.215 25.459-28.641 41.016-7.779 15.558-12.022 31.47-13.79 43.138" fill="white" fill-rule="nonzero" stroke="none" stroke-width="1" stroke-linecap="butt" stroke-linejoin="miter" stroke-miterlimit="10" stroke-dasharray="" stroke-dashoffset="0" font-family="none" font-weight="none" font-size="none" text-anchor="none" style="mix-blend-mode: normal"></path></g><g transform="matrix(1,0,0,1,48.000000000000014,143.03988849290266)"><svg viewBox="0 0 223.99999999999997 73.92022301419465" height="73.92022301419465" width="223.99999999999997"><g><svg viewBox="0 0 419.4896435045317 138.432" height="73.92022301419465" width="223.99999999999997"><g transform="matrix(1,0,0,1,195.4896435045317,20.877631419939576)"><svg viewBox="0 0 224 96.67673716012084" height="96.67673716012084" width="224"><g id="SvgjsG1874"><svg viewBox="0 0 224 96.67673716012084" height="96.67673716012084" width="224" id="SvgjsSvg1873"><g><svg viewBox="0 0 224 96.67673716012084" height="96.67673716012084" width="224"><g transform="matrix(1,0,0,1,0,0)"><svg width="224" viewBox="0.12000000476837158 -30.8799991607666 92.66999816894531 40" height="96.67673716012084" data-palette-color="url(#34fa8533-8e2d-40fe-be8a-d939b91de191)"></svg></g></svg></g></svg></g></svg></g><g><svg viewBox="0 0 138.432 138.432" height="138.432" width="138.432"><g><svg viewBox="0 0 138.432 138.432" height="138.432" width="138.432"><g transform="matrix(1,0,0,1,36.587264688927945,36.587264688927945)"><svg viewBox="0 0 65.2574706221441 65.2574706221441" height="65.2574706221441" width="65.2574706221441"><g><svg xmlns="http://www.w3.org/2000/svg" xmlns:xlink="http://www.w3.org/1999/xlink" version="1.1" x="0" y="0" viewBox="1 1 62 62" style="enable-background:new 0 0 64 64;" xml:space="preserve" height="65.2574706221441" width="65.2574706221441" class="icon-s-0" data-fill-palette-color="accent" id="SvgjsSvg1872"></svg></g></svg></g><g></g></svg></g></svg></g></svg></g></svg></g></svg></g><defs><mask></mask></defs><mask><g id="SvgjsG1871"><svg viewBox="0 0 320 360" height="360" width="320"><g><svg></svg></g><g><svg viewBox="0 0 320 360" height="360" width="320"><g></g><g transform="matrix(1,0,0,1,48.000000000000014,143.03988849290266)"><svg viewBox="0 0 223.99999999999997 73.92022301419465" height="73.92022301419465" width="223.99999999999997"><g><svg viewBox="0 0 419.4896435045317 138.432" height="73.92022301419465" width="223.99999999999997"><g transform="matrix(1,0,0,1,195.4896435045317,20.877631419939576)"><svg viewBox="0 0 224 96.67673716012084" height="96.67673716012084" width="224"><g id="SvgjsG1870"><svg viewBox="0 0 224 96.67673716012084" height="96.67673716012084" width="224" id="SvgjsSvg1869"><g><svg viewBox="0 0 224 96.67673716012084" height="96.67673716012084" width="224"><g transform="matrix(1,0,0,1,0,0)"><svg width="224" viewBox="0.12000000476837158 -30.8799991607666 92.66999816894531 40" height="96.67673716012084" data-palette-color="url(#34fa8533-8e2d-40fe-be8a-d939b91de191)"></svg></g></svg></g></svg></g></svg></g><g><svg viewBox="0 0 138.432 138.432" height="138.432" width="138.432"><g><svg viewBox="0 0 138.432 138.432" height="138.432" width="138.432"><g transform="matrix(1,0,0,1,36.587264688927945,36.587264688927945)"><svg viewBox="0 0 65.2574706221441 65.2574706221441" height="65.2574706221441" width="65.2574706221441"><g><svg xmlns="http://www.w3.org/2000/svg" xmlns:xlink="http://www.w3.org/1999/xlink" version="1.1" x="0" y="0" viewBox="1 1 62 62" style="enable-background:new 0 0 64 64;" xml:space="preserve" height="65.2574706221441" width="65.2574706221441" class="icon-s-0" data-fill-palette-color="accent" id="SvgjsSvg1867"></svg></g></svg></g><g></g></svg></g></svg></g></svg></g></svg></g></svg></g><defs><mask></mask></defs></svg></g></mask><mask><g id="SvgjsG1866"><svg viewBox="0 0 320 360" height="360" width="320"><g><svg></svg></g><g><svg viewBox="0 0 320 360" height="360" width="320"><g></g><g transform="matrix(1,0,0,1,48.000000000000014,143.03988849290266)"><svg viewBox="0 0 223.99999999999997 73.92022301419465" height="73.92022301419465" width="223.99999999999997"><g><svg viewBox="0 0 419.4896435045317 138.432" height="73.92022301419465" width="223.99999999999997"><g transform="matrix(1,0,0,1,195.4896435045317,20.877631419939576)"><svg viewBox="0 0 224 96.67673716012084" height="96.67673716012084" width="224"><g id="SvgjsG1865"><svg viewBox="0 0 224 96.67673716012084" height="96.67673716012084" width="224" id="SvgjsSvg1864"><g><svg viewBox="0 0 224 96.67673716012084" height="96.67673716012084" width="224"><g transform="matrix(1,0,0,1,0,0)"><svg width="224" viewBox="0.12000000476837158 -30.8799991607666 92.66999816894531 40" height="96.67673716012084" data-palette-color="url(#34fa8533-8e2d-40fe-be8a-d939b91de191)"></svg></g></svg></g></svg></g></svg></g><g><svg viewBox="0 0 138.432 138.432" height="138.432" width="138.432"><g><svg viewBox="0 0 138.432 138.432" height="138.432" width="138.432"><g transform="matrix(1,0,0,1,36.587264688927945,36.587264688927945)"><svg viewBox="0 0 65.2574706221441 65.2574706221441" height="65.2574706221441" width="65.2574706221441"><g><svg xmlns="http://www.w3.org/2000/svg" xmlns:xlink="http://www.w3.org/1999/xlink" version="1.1" x="0" y="0" viewBox="1 1 62 62" style="enable-background:new 0 0 64 64;" xml:space="preserve" height="65.2574706221441" width="65.2574706221441" class="icon-s-0" data-fill-palette-color="accent" id="SvgjsSvg1863"></svg></g></svg></g><g></g></svg></g></svg></g></svg></g></svg></g></svg></g><defs><mask></mask></defs><mask><g id="SvgjsG1862"><svg viewBox="0 0 320 360" height="360" width="320"><g><svg></svg></g><g><svg viewBox="0 0 320 360" height="360" width="320"><g></g><g transform="matrix(1,0,0,1,48.000000000000014,143.03988849290266)"><svg viewBox="0 0 223.99999999999997 73.92022301419465" height="73.92022301419465" width="223.99999999999997"><g><svg viewBox="0 0 419.4896435045317 138.432" height="73.92022301419465" width="223.99999999999997"><g transform="matrix(1,0,0,1,195.4896435045317,20.877631419939576)"><svg viewBox="0 0 224 96.67673716012084" height="96.67673716012084" width="224"><g id="SvgjsG1861"><svg viewBox="0 0 224 96.67673716012084" height="96.67673716012084" width="224" id="SvgjsSvg1860"><g><svg viewBox="0 0 224 96.67673716012084" height="96.67673716012084" width="224"><g transform="matrix(1,0,0,1,0,0)"><svg width="224" viewBox="0.12000000476837158 -30.8799991607666 92.66999816894531 40" height="96.67673716012084" data-palette-color="url(#34fa8533-8e2d-40fe-be8a-d939b91de191)"></svg></g></svg></g></svg></g></svg></g><g><svg viewBox="0 0 138.432 138.432" height="138.432" width="138.432"><g><svg viewBox="0 0 138.432 138.432" height="138.432" width="138.432"><g transform="matrix(1,0,0,1,36.587264688927945,36.587264688927945)"><svg viewBox="0 0 65.2574706221441 65.2574706221441" height="65.2574706221441" width="65.2574706221441"><g><svg xmlns="http://www.w3.org/2000/svg" xmlns:xlink="http://www.w3.org/1999/xlink" version="1.1" x="0" y="0" viewBox="1 1 62 62" style="enable-background:new 0 0 64 64;" xml:space="preserve" height="65.2574706221441" width="65.2574706221441" class="icon-s-0" data-fill-palette-color="accent" id="SvgjsSvg1859"></svg></g></svg></g><g></g></svg></g></svg></g></svg></g></svg></g></svg></g><defs><mask></mask></defs></svg></g></mask></svg></g></mask></svg></g></mask><linearGradient x1="0.054" x2="0.941" y1="0.5" y2="0.5" id="5063755e-2b53-43c2-b0b5-b9e033ad6296"><stop stop-color="#26282a" offset="0"></stop><stop stop-color="#9e9fa0" offset="0.498"></stop><stop stop-color="#26282a" offset="1"></stop></linearGradient></svg><rect width="320" height="360" fill="none" stroke="none" visibility="hidden"></rect></g></svg></g></svg>